<svg width="27" height="24" viewBox="0 0 27 24" fill="none" xmlns="http://www.w3.org/2000/svg">
    <path fill-rule="evenodd" clip-rule="evenodd"
        d="M23.713 3.91719H19.8484L19.3984 2.57001C19.1815 1.91588 18.7634 1.34671 18.2034 0.943568C17.6435 0.540424 16.9704 0.323857 16.28 0.32471H10.7198C10.0295 0.324183 9.3567 0.54089 8.79698 0.944002C8.23727 1.34711 7.81919 1.9161 7.60223 2.57001L7.15134 3.91719H3.28677C2.41536 3.91814 1.57991 4.26401 0.963725 4.87891C0.347543 5.49381 0.000952886 6.32753 0 7.19713V20.3995C0.00190493 21.2685 0.348915 22.1013 0.964994 22.7154C1.58107 23.3295 2.41598 23.6749 3.28677 23.6758H23.7166C24.5874 23.6739 25.4219 23.3277 26.0373 22.7129C26.6527 22.0981 26.9988 21.2649 26.9998 20.3959V7.19354C26.9978 6.32456 26.6508 5.49177 26.0348 4.87764C25.4187 4.26352 24.5838 3.91814 23.713 3.91719ZM25.1998 20.3959C25.1993 20.7893 25.0425 21.1664 24.7638 21.4445C24.4851 21.7227 24.1072 21.8791 23.713 21.8796H3.28677C2.8926 21.8791 2.5147 21.7227 2.23598 21.4445C1.95726 21.1664 1.80046 20.7893 1.79998 20.3959V7.19354C1.80141 6.8008 1.95863 6.42462 2.23725 6.14725C2.51587 5.86988 2.89322 5.71391 3.28677 5.71343H7.80023C7.98904 5.71329 8.17303 5.65389 8.32615 5.54364C8.47926 5.4334 8.59376 5.27788 8.65342 5.09912L9.30951 3.13493C9.40804 2.83949 9.59731 2.58253 9.85046 2.40051C10.1036 2.2185 10.4078 2.12068 10.7198 2.12095H16.28C16.5921 2.12061 16.8964 2.2185 17.1496 2.40071C17.4028 2.58291 17.592 2.84015 17.6902 3.13583L18.3463 5.09912C18.406 5.27788 18.5205 5.4334 18.6736 5.54364C18.8267 5.65389 19.0107 5.71329 19.1995 5.71343H23.713C24.1072 5.71391 24.4851 5.87038 24.7638 6.14852C25.0425 6.42667 25.1993 6.80377 25.1998 7.19713V20.3959ZM13.4998 6.61109C12.1648 6.61109 10.8598 7.00614 9.74974 7.74629C8.63972 8.48645 7.77456 9.53845 7.26368 10.7693C6.75279 12.0001 6.61912 13.3545 6.87957 14.6611C7.14002 15.9677 7.78288 17.168 8.72688 18.11C9.67088 19.052 10.8736 19.6936 12.183 19.9535C13.4923 20.2134 14.8495 20.08 16.0829 19.5702C17.3163 19.0603 18.3705 18.197 19.1122 17.0893C19.8539 15.9815 20.2497 14.6792 20.2497 13.347C20.2478 11.5611 19.5361 9.84891 18.2706 8.58609C17.0052 7.32328 15.2894 6.61299 13.4998 6.61109ZM13.4998 18.2867C12.5208 18.2867 11.5638 17.997 10.7498 17.4542C9.93574 16.9114 9.3013 16.1399 8.92665 15.2373C8.552 14.3347 8.45397 13.3415 8.64497 12.3833C8.83596 11.4251 9.3074 10.5449 9.99966 9.85413C10.6919 9.1633 11.5739 8.69284 12.5341 8.50225C13.4943 8.31165 14.4896 8.40947 15.3941 8.78334C16.2986 9.15721 17.0716 9.79034 17.6155 10.6027C18.1595 11.415 18.4498 12.37 18.4498 13.347C18.4483 14.6566 17.9264 15.9122 16.9984 16.8383C16.0704 17.7643 14.8122 18.2852 13.4998 18.2867ZM23.4001 8.40767C23.4001 8.90369 22.9972 9.30579 22.5001 9.30579C22.0031 9.30579 21.6001 8.90369 21.6001 8.40767C21.6001 7.91165 22.0031 7.50955 22.5001 7.50955C22.9972 7.50955 23.4001 7.91165 23.4001 8.40767Z"
        fill="white" />
</svg>
