<svg width="28" height="21" viewBox="0 0 28 21" fill="none" xmlns="http://www.w3.org/2000/svg">
    <path fill-rule="evenodd" clip-rule="evenodd"
        d="M24.7916 21H3.2084C1.43854 21 0 19.5615 0 17.7916V17.7909V3.2084C0 1.43854 1.43854 0 3.2084 0H24.7916C26.5615 0 28 1.43854 28 3.2084V17.7916C28 19.5615 26.5615 21 24.7916 21ZM1.75 15.6783V3.2084C1.75 2.40454 2.40454 1.75 3.2084 1.75H24.7916C25.5955 1.75 26.25 2.40454 26.25 3.2084V13.3455L19.5298 6.62531C18.733 5.82721 17.4344 5.82721 16.6365 6.62531L11.0832 12.1786L9.61304 10.7087C8.81622 9.91061 7.51782 9.91061 6.71973 10.7087L1.75 15.6783ZM1.78652 18.1165L7.95639 11.9464C8.10464 11.7982 8.22705 11.7982 8.37531 11.9464L10.4637 14.0348C10.8055 14.3766 11.3596 14.3766 11.7014 14.0348L17.8732 7.86304C17.9862 7.74875 18.1776 7.74875 18.2919 7.86304L26.25 15.8211V17.7916C26.25 18.5955 25.5955 19.25 24.7916 19.25H3.2084C2.51618 19.25 1.93468 18.7646 1.78652 18.1165ZM5.8334 8.1666C4.54654 8.1666 3.5 7.12027 3.5 5.8334C3.5 4.54654 4.54654 3.5 5.8334 3.5C7.12027 3.5 8.1666 4.54654 8.1666 5.8334C8.1666 7.12027 7.12027 8.1666 5.8334 8.1666ZM5.8334 5.25C5.51126 5.25 5.25 5.51126 5.25 5.8334C5.25 6.15533 5.51126 6.4166 5.8334 6.4166C6.15533 6.4166 6.4166 6.15533 6.4166 5.8334C6.4166 5.51126 6.15533 5.25 5.8334 5.25Z"
        fill="white" />
</svg>
